HIERARCHY
ROOT hip
{
	OFFSET 0.000000 0.000000 0.000000 
	CHANNELS 6 Xposition Yposition Zposition Xrotation Zrotation Yrotation
	JOINT abdomen
	{
		OFFSET 0.000000 3.402643 0.000000 
		CHANNELS 3 Xrotation Zrotation Yrotation
		JOINT chest
		{
			OFFSET 0.000000 8.438565 -0.680529 
			CHANNELS 3 Xrotation Zrotation Yrotation
			JOINT neck
			{
				OFFSET 0.000000 10.207942 -0.272212 
				CHANNELS 3 Xrotation Zrotation Yrotation
				JOINT head
				{
					OFFSET 0.000000 3.130431 0.000000 
					CHANNELS 3 Xrotation Zrotation Yrotation
					End Site
					{
						OFFSET 0.000000 3.130435 0.000000 
					}
				}
			}
			JOINT lCollar
			{
				OFFSET 3.470700 6.669187 -0.816635 
				CHANNELS 3 Yrotation Zrotation Xrotation
				JOINT lShldr
				{
					OFFSET 3.198488 0.000000 0.000000 
					CHANNELS 3 Zrotation Yrotation Xrotation
					JOINT lForeArm
					{
						OFFSET 10.139888 0.000000 0.000000 
						CHANNELS 3 Yrotation Zrotation Xrotation
						JOINT lHand
						{
							OFFSET 8.370511 0.000000 0.000000 
							CHANNELS 3 Zrotation Yrotation Xrotation
							End Site
							{
								OFFSET 4.083176 0.000000 0.000000 
							}
						}
					}
				}
			}
			JOINT rCollar
			{
				OFFSET -3.470700 6.669187 -0.816635 
				CHANNELS 3 Yrotation Zrotation Xrotation
				JOINT rShldr
				{
					OFFSET -3.198488 0.000000 0.000000 
					CHANNELS 3 Zrotation Yrotation Xrotation
					JOINT rForeArm
					{
						OFFSET -10.139888 0.000000 0.000000 
						CHANNELS 3 Yrotation Zrotation Xrotation
						JOINT rHand
						{
							OFFSET -8.370511 0.000000 0.000000 
							CHANNELS 3 Zrotation Yrotation Xrotation
							End Site
							{
								OFFSET -4.083176 0.000000 0.000000 
							}
						}
					}
				}
			}
		}
	}
	JOINT lThigh
	{
		OFFSET 5.308129 -1.633274 1.361059 
		CHANNELS 3 Xrotation Zrotation Yrotation
		JOINT lShin
		{
			OFFSET -2.041588 -20.007561 0.000000 
			CHANNELS 3 Xrotation Zrotation Yrotation
			JOINT lFoot
			{
				OFFSET 0.000000 -19.190928 -1.224953 
				CHANNELS 3 Xrotation Yrotation Zrotation
				End Site
				{
					OFFSET 0.000000 -2.449906 4.627600 
				}
			}
		}
	}
	JOINT rThigh
	{
		OFFSET -5.308129 -1.633274 1.361059 
		CHANNELS 3 Xrotation Zrotation Yrotation
		JOINT rShin
		{
			OFFSET 2.041588 -20.007561 0.000000 
			CHANNELS 3 Xrotation Zrotation Yrotation
			JOINT rFoot
			{
				OFFSET 0.000000 -19.190928 -1.224953 
				CHANNELS 3 Xrotation Yrotation Zrotation
				End Site
				{
					OFFSET 0.000000 -2.449906 4.627600 
				}
			}
		}
	}
}
MOTION
Frames: 18
Frame Time: 0.033333
6.593685 40.638046 -11.967294 6.728516 2.705078 -32.216331 0.000000 0.000000 0.000000 2.373047 0.429688 1.689453 48.408203 -9.335938 7.615604 -15.087892 -21.210939 11.474609 -4.443359 -8.115234 9.893957 -67.998047 -42.275391 26.106709 -116.162109 -0.283203 32.265694 14.003906 -0.058594 -6.914062 13.281250 8.740234 9.960938 80.703125 58.359375 59.248051 111.933594 -4.287109 31.386721 -22.490232 8.027344 -9.695902 -31.410738 24.282518 4.622637 36.736481 -3.761798 1.736963 -9.953050 1.999059 -14.348414 -19.056837 -15.465158 5.920261 37.007568 -1.391769 12.535478 -29.208977 -5.225100 16.304371 
6.732993 40.566895 -11.827761 6.845703 2.500000 -32.744141 0.000000 0.000000 0.000000 2.373047 0.205078 1.533203 48.251957 -9.091797 7.381270 -14.951171 -21.669922 11.939753 -5.517578 -8.251954 9.903746 -66.884766 -43.427734 24.641724 -115.029289 -0.322266 31.748123 14.101563 -0.341797 -6.972714 12.656251 8.105469 10.047452 81.328125 59.843746 59.832668 110.878906 -4.326172 31.475346 -22.324219 8.193359 -9.687501 -31.812210 24.791149 5.438270 38.067818 -3.776864 1.034521 -10.136065 1.856680 -13.429459 -19.164618 -15.260504 6.699525 36.999229 -1.395843 12.204512 -29.175106 -5.314966 16.529978 
6.898340 40.373352 -11.585995 6.992188 1.914063 -33.193035 0.000000 0.000000 0.000000 2.373047 -0.380859 1.152344 48.212891 -8.759767 6.687966 -15.419921 -22.236328 12.818571 -7.597657 -8.007812 9.902344 -65.234375 -43.964844 22.131891 -113.906250 -0.292969 32.148460 13.906251 -0.371094 -6.953189 11.298828 7.226563 10.115959 82.695313 61.992191 61.561356 109.599609 -4.326171 30.742186 -22.041016 8.525390 -9.715349 -32.718704 25.678156 5.907001 40.718967 -3.807514 -0.128082 -10.948456 1.819031 -12.367262 -19.304506 -15.037782 6.721148 37.702141 -1.470258 12.693572 -29.442244 -5.314538 16.416624 
6.940185 40.110565 -11.337138 7.148438 0.751953 -32.451046 0.000000 0.000000 0.000000 2.412109 -1.083984 0.683594 48.720707 -7.753907 5.447901 -16.240234 -22.412107 13.320313 -10.087891 -7.177734 10.059814 -63.388672 -43.896484 18.294012 -111.240234 -0.253906 32.871140 13.789063 -0.820313 -7.011841 9.609375 6.142578 10.301689 83.359375 63.935551 62.529297 108.652344 -4.296875 29.873360 -21.875000 8.945313 -9.775390 -34.113884 26.575703 4.756649 43.533955 -3.830286 -1.373247 -12.055071 1.839818 -11.864105 -19.430590 -14.802803 4.826814 40.181164 -1.645858 14.285084 -29.835102 -5.639184 17.290119 
6.729789 39.850990 -11.173434 7.548828 -1.074219 -29.404375 0.000000 0.000000 0.000000 2.431641 -1.503906 0.244141 49.599609 -5.966797 3.758751 -16.435547 -21.357422 12.636720 -12.402345 -6.220703 10.146484 -61.474613 -44.306644 15.146485 -104.990234 -0.253906 33.212936 14.013672 -1.230469 -7.099609 7.958984 4.619141 10.400393 82.666016 64.833984 60.799850 107.431641 -4.365235 30.381607 -21.953127 9.277344 -9.863281 -36.489273 27.066702 1.167119 45.652374 -3.850742 -2.834824 -12.922843 1.931155 -11.947519 -19.572552 -14.301569 1.239703 44.643284 -2.046377 16.480915 -30.066656 -6.789039 20.590488 
6.232956 39.631348 -11.089796 8.408203 -3.281250 -23.867191 0.000000 0.000000 0.000000 2.392578 -1.552723 -0.058858 50.185547 -4.941407 1.767578 -15.664063 -17.958984 10.397380 -13.574219 -5.585938 9.912110 -60.292969 -45.039066 15.126955 -97.500000 -0.283203 32.812527 13.701173 -1.044922 -7.031428 6.523438 2.617188 10.224162 82.441406 64.394531 57.997082 106.357422 -4.472656 31.631617 -22.050781 9.121094 -9.842203 -40.213634 26.806002 -4.519093 46.741524 -3.899364 -4.736687 -13.130746 1.934709 -12.103370 -19.404402 -13.574413 -2.900835 49.340225 -2.386304 19.149351 -30.242012 -8.306954 25.029305 
5.502071 39.469025 -11.026310 9.667969 -5.410157 -16.407169 0.000000 0.000000 0.000000 2.333984 -1.445313 0.029297 49.824223 -6.171875 -0.479566 -14.208985 -11.250001 6.162109 -12.382813 -5.048828 9.589845 -60.585938 -44.941406 16.897402 -94.335938 -0.341797 31.992247 12.451171 -1.513672 -6.943359 6.464844 0.283203 10.136718 82.089844 63.076176 54.481361 107.353516 -4.453125 31.582033 -22.109375 8.583984 -9.746094 -44.948269 25.291979 -10.990522 46.679390 -3.928999 -7.307001 -12.518073 1.838056 -12.039569 -18.095043 -12.684976 -7.139604 52.118423 -2.595520 21.893656 -30.836012 -9.212225 27.136822 
4.608568 39.365936 -10.982082 11.259766 -6.748048 -7.891773 0.000000 0.000000 0.000000 2.373047 -1.591797 0.947266 48.593746 -9.277344 -2.568360 -12.656250 -1.269531 -0.449219 -7.939454 -4.423829 9.755858 -61.796875 -45.097660 18.889566 -97.861328 -0.351563 31.865295 10.947265 -2.275390 -6.845703 9.990234 -1.718750 10.830079 77.255859 61.113281 47.020267 110.498047 -4.306641 30.908939 -22.480469 8.203125 -9.726563 -49.635246 22.313717 -16.510717 45.109657 -3.990247 -10.324888 -11.123372 1.729575 -12.025594 -15.953549 -11.656485 -11.032433 52.582077 -2.614663 22.390385 -32.164913 -9.045636 25.740946 
3.621437 39.293350 -10.970607 13.750000 -7.089843 0.517578 0.000000 0.000000 0.000000 2.480469 -2.197266 2.705078 47.158203 -13.496093 -3.947592 -12.724610 10.419922 -8.867188 -0.224609 -4.345703 10.654295 -65.068359 -48.007813 23.293526 -104.248047 -0.283203 32.685570 10.107423 -2.265625 -6.748432 17.568357 -2.890625 12.490233 68.750000 58.574219 36.914063 113.574219 -4.238281 31.464840 -23.134766 8.085938 -9.824218 -53.949123 18.593441 -19.616856 41.916718 -4.097995 -13.719846 -9.054702 1.569604 -12.349321 -14.578099 -10.632445 -14.504037 51.662457 -2.604393 19.867725 -33.862823 -8.480614 23.039675 
2.641659 39.194084 -10.865395 17.568359 -7.451172 8.260452 0.000000 0.000000 0.000000 2.539063 -2.685547 4.853058 46.533199 -19.179689 -4.648438 -16.230469 21.240234 -18.359373 9.179688 -4.765625 11.963701 -73.203125 -51.171875 31.699215 -109.716797 -0.253906 33.037109 10.087891 -1.718750 -6.669921 27.226561 -4.238281 14.658204 60.322262 56.406250 28.388670 115.322266 -4.160156 31.270243 -23.906248 7.812500 -9.910780 -58.539398 14.853968 -20.784431 38.160976 -4.219164 -17.278492 -6.851535 1.464631 -12.911728 -14.491332 -9.725578 -18.351788 49.417915 -2.468760 16.894976 -36.253338 -8.111658 20.662495 
1.747905 38.994564 -10.554435 21.396484 -8.564453 15.486827 0.000000 0.000000 0.000000 2.587891 -2.705078 6.855469 48.437500 -24.707031 -5.800781 -22.724609 28.203123 -27.548828 17.656250 -5.068359 13.321175 -83.203125 -50.986332 42.384991 -112.265625 -0.185547 34.082031 11.699220 -1.435547 -6.836182 36.240231 -5.966797 16.767578 50.341797 53.994141 20.400389 113.232422 -4.121093 29.541016 -24.785156 7.441407 -9.990233 -63.080040 10.919101 -21.771555 35.515705 -4.316786 -20.397741 -5.128487 1.353822 -13.480000 -14.107524 -8.568806 -23.026928 45.406178 -2.110901 15.194623 -39.896282 -7.673149 17.867764 
0.982208 38.644787 -10.186936 23.300783 -9.707031 21.570618 0.000000 0.000000 0.000000 2.763672 -2.617188 8.017132 53.144531 -26.718752 -7.792969 -28.906248 30.576172 -33.442299 22.646484 -4.531250 14.667968 -90.068359 -48.564453 52.961430 -112.128906 0.146484 39.033207 13.466796 -0.673828 -6.943359 42.031250 -7.685547 18.701170 40.234375 52.187500 12.265626 103.056641 -4.404297 29.257813 -25.722656 7.353515 -10.136718 -66.233025 7.316521 -23.088495 34.841961 -4.355771 -22.667763 -4.338117 1.326738 -14.100274 -12.593581 -6.770946 -26.838411 41.171139 -1.777228 13.149317 -43.749451 -6.783099 14.435038 
0.413312 38.241131 -9.987708 23.251955 -10.322265 24.881063 0.000000 0.000000 0.000000 3.134766 -2.724609 8.007347 58.232426 -25.927734 -9.662472 -32.841797 31.093750 -35.268391 23.730467 -1.865234 16.093750 -93.232422 -45.439453 57.871094 -111.328125 0.400391 43.144428 12.998047 -0.927734 -6.923985 44.912109 -10.615236 21.105314 32.265625 53.935547 4.802816 84.462891 -4.658203 30.127747 -27.333982 6.337891 -10.164936 -67.772934 5.605406 -23.969580 35.724995 -4.407146 -24.192314 -4.428085 1.391064 -14.711761 -11.500953 -4.761855 -27.741884 39.372200 -1.653498 9.699377 -46.251556 -5.857968 11.796526 
0.128940 37.929592 -9.963096 22.675783 -10.917969 24.783308 0.000000 0.000000 0.000000 3.554688 -3.037110 7.440889 62.412109 -24.619141 -11.273599 -35.302734 30.781248 -34.858284 23.242188 2.294922 17.411718 -93.437500 -42.314453 52.753914 -108.554688 0.332031 42.128876 11.777344 -3.583984 -7.119750 45.000000 -13.759767 23.791382 24.892578 55.019531 -4.132623 67.607422 -4.492188 30.645296 -29.570311 4.384766 -9.999251 -68.896416 6.223750 -24.584015 37.771599 -4.435809 -24.554276 -5.291342 1.513516 -14.967274 -11.647802 -3.093396 -26.425613 39.744305 -1.741522 7.128301 -47.224205 -5.341095 10.533379 
0.232684 37.712093 -10.024199 21.894533 -11.210938 21.707087 0.000000 0.000000 0.000000 3.857421 -3.447266 7.011718 65.244141 -22.968748 -12.167969 -36.113281 28.447268 -32.832031 23.710936 4.638672 18.359375 -89.423828 -39.570313 41.015625 -101.855469 0.253906 41.210915 12.109375 -3.730469 -7.197265 45.000000 -13.769531 25.000000 20.947266 48.876953 -13.896484 68.027344 -4.658204 33.116024 -30.800779 3.994141 -10.087211 -69.689110 8.049362 -25.740324 41.471626 -4.379194 -22.765186 -6.861835 1.645126 -14.657183 -11.568202 -2.389203 -24.340349 40.289898 -1.786704 7.921235 -47.761459 -5.034101 9.810961 
0.835262 37.470402 -10.128527 20.205078 -10.419922 15.224609 0.000000 0.000000 0.000000 4.023438 -3.837891 6.669921 65.605469 -20.849607 -11.497616 -34.443359 23.369143 -27.978516 25.146484 2.675781 18.828121 -79.531250 -31.826176 26.283913 -94.218750 0.351563 42.656250 11.513671 0.585938 -6.552734 40.576172 -11.083984 24.308519 20.898439 37.470703 -22.064371 86.152344 -4.873047 33.262547 -30.576172 3.515625 -9.901744 -69.003639 11.135616 -26.715221 47.253006 -4.250054 -19.083143 -9.747480 1.904896 -14.063377 -10.561641 -3.647919 -21.398672 41.655556 -1.805607 12.956112 -48.444122 -4.879752 9.362489 
1.971484 37.200466 -10.201465 18.535156 -9.277345 3.662110 0.000000 0.000000 0.000000 3.808594 -4.287109 5.859375 61.787106 -19.306641 -9.287110 -31.240232 14.140626 -19.089411 26.572268 -1.250000 17.881069 -70.605469 -8.681641 3.299307 -87.724609 -0.107422 35.429703 9.687500 -2.470703 -6.708985 33.203125 -10.839844 21.943361 21.640625 25.878906 -31.542971 105.859375 -4.257813 28.017578 -29.882813 1.914063 -9.335610 -66.975510 17.501038 -25.530369 54.236317 -4.033535 -14.844502 -14.437889 2.345404 -13.770541 -11.636034 -6.753250 -15.183707 45.220177 -1.914834 21.982040 -48.029171 -5.337636 10.321759 
3.481342 37.052319 -10.201476 18.847656 -7.656250 -14.316406 0.000000 0.000000 0.000000 2.871094 -5.185547 4.394531 53.750000 -20.957031 -5.830078 -30.322264 0.449219 -6.777267 26.835938 -3.183594 13.789605 -75.605469 22.285158 -27.525593 -85.996094 -1.552734 13.291280 9.062500 -8.281249 -7.236329 25.468750 -15.107421 16.740824 24.443359 19.101563 -36.142578 116.611328 -3.789063 26.376953 -30.253906 2.851563 -9.667968 -63.721157 28.592478 -19.910656 60.662933 -3.688603 -10.672273 -19.958775 3.036801 -14.283323 -18.679804 -9.500952 -3.134552 49.380112 -1.979345 32.848953 -44.837948 -6.590651 13.744032 
